<?xml version="1.0" standalone="no"?>
<!DOCTYPE svg PUBLIC "-//W3C//DTD SVG 1.1//EN" "http://www.w3.org/Graphics/SVG/1.1/DTD/svg11.dtd" >
<svg xmlns="http://www.w3.org/2000/svg" xmlns:xlink="http://www.w3.org/1999/xlink" version="1.1">
<metadata></metadata>
<defs>
<font id="muuwhoversion" horiz-adv-x="1148" >
<font-face units-per-em="2048" ascent="1638" descent="-410" />
<missing-glyph horiz-adv-x="552" />
<glyph horiz-adv-x="0" />
<glyph horiz-adv-x="0" />
<glyph unicode="&#xd;" horiz-adv-x="0" />
<glyph unicode=" "  horiz-adv-x="552" />
<glyph unicode="&#x09;" horiz-adv-x="552" />
<glyph unicode="&#xa0;" horiz-adv-x="552" />
<glyph unicode="+" horiz-adv-x="576" d="M54 578q0 12 6 22q8 8 20 8h190h64v250q0 12 6 22q10 10 22 10t20 -10q6 -10 6 -22v-186v-64h254q12 0 20 -8q6 -10 6 -22t-6 -18q-8 -8 -20 -8h-190h-64v-254q0 -12 -6 -18q-8 -8 -20 -8t-22 8q-6 6 -6 18v190v64h-254q-12 0 -20 8q-6 6 -6 18zM382 596h2q2 -2 2 0h-4z " />
<glyph unicode="1" d="M-104 432v74v54v94v58q0 162 114 276q112 116 274 116h154h112h66h50h96h106q160 0 274 -116q114 -114 114 -276v-114v-38q0 -160 -114 -276t-274 -116h-146h-106h-64h-46h-92h-100l6 -168q-14 2 -40 8q-2 0 -98 34q-94 32 -178 120q-46 50 -76 116q-32 66 -32 154z M-38 436q0 -112 54 -182t118 -110q36 -22 68 -36q34 -14 56 -22l-2 114l-2 38h614q134 0 228 96t94 232v112v38q0 136 -94 232q-96 96 -228 96h-154h-112h-68h-48h-96h-106q-38 0 -78 -12q-40 -14 -76 -38q-70 -42 -120 -116q-48 -74 -48 -162v-20v-54v-54v-70v-24v-58z M202 638q0 36 26 62q26 24 62 24q34 0 60 -24q26 -26 26 -62t-26 -60q-12 -12 -26 -18q-16 -8 -34 -8q-36 0 -62 26q-26 24 -26 60zM246 638q0 -18 12 -30t32 -12q8 0 16 2q8 4 14 10q12 14 12 30q0 20 -14 32q-12 12 -28 12q-20 0 -32 -14t-12 -30zM488 638q0 36 24 62 q26 24 62 24t60 -24q26 -26 26 -62t-26 -60q-24 -26 -60 -26t-62 26q-24 24 -24 60zM530 638q0 -18 12 -30t32 -12t32 12q10 14 10 30q0 20 -10 32q-12 12 -32 12t-32 -14t-12 -30zM772 638q0 36 26 62q24 24 60 24t62 -24q24 -26 24 -62t-24 -60q-22 -26 -62 -26 q-36 0 -60 26q-26 24 -26 60zM816 638q0 -18 12 -30q14 -12 30 -12q20 0 32 12q12 14 12 30q0 20 -12 32t-32 12q-18 0 -30 -14t-12 -30z" />
<glyph unicode="2" d="M206 534q0 170 56 274q58 106 250 106t250 -104t58 -276q0 -60 -4 -126t-16 -126q-24 -116 -88 -198q-64 -84 -200 -84q-132 0 -198 84q-64 82 -88 198q-12 60 -16 126t-4 126zM210 560q0 12 8 20q8 10 22 10h144h106h64h46h90h100q12 0 22 -10q8 -8 8 -20q0 -14 -8 -22 q-10 -8 -22 -8h-144h-108h-62h-46h-92h-98q-14 0 -22 8t-8 22zM270 534q0 -244 58 -358q60 -116 184 -116q126 0 184 114q60 114 60 360v20q0 160 -52 226q-54 70 -192 70t-190 -70t-52 -246zM482 560v84v62v78v28v68q0 12 10 20q8 10 20 10q14 0 22 -10q8 -8 8 -20v-84v-62 v-108v-66q2 -4 2 -6q0 -10 -8 -16q-8 -8 -20 -8h-4q-12 0 -20 8q-10 8 -10 22zM482 880q0 2 6 56t54 106q38 42 98 64t138 22q60 0 104 14q44 16 66 44q28 40 24 80l-2 40q-4 14 2 24q6 12 18 14q4 2 8 2q10 0 16 -4q12 -6 14 -18q0 -4 6 -60v-12v-6q0 -48 -40 -98 q-32 -42 -86 -64q-56 -22 -136 -22q-64 0 -112 -16t-80 -48q-34 -38 -38 -76l-4 -38q6 -14 -2 -24t-24 -10q-12 0 -20 8q-10 8 -10 22z" />
<glyph unicode="3" d="M-96 242q0 -102 72 -172t172 -70h222h166h98h72h140h154q102 0 172 72t70 170v112v84v142v88q0 104 -70 174t-172 70h-224h-166h-96h-72h-140h-154q-104 0 -174 -72t-70 -172v-110v-84v-106v-36v-90zM-36 242v76v56v98v6v54h608h606v-290v-8q0 -70 -50 -122 q-52 -52 -128 -52h-224h-166h-96h-72h-140h-154q-78 0 -130 52q-54 54 -54 130zM-20 746q24 44 68 76q44 30 100 30h222h166h98h72h140h154q54 0 98 -30q44 -28 68 -76h-312h-228h-136h-100h-170h-122h-50h-68z" />
<glyph unicode="4" d="M-78 32q0 -4 2 -4q0 -2 4 -6v-4t2 -4q2 -2 6 -4v-2q2 0 4 -4q4 0 8 -2t6 -2h296h216h128h96h160h116h48h54h8q12 0 20 6q10 6 12 16q36 94 64 164q26 72 46 122q16 42 28 72q12 32 20 54q36 90 40 102q6 14 44 114q2 4 2 8q0 2 -2 6q-2 6 -4 14q-4 6 -12 12q-10 6 -16 6 h-54h-42h-70h-44v108q0 14 -8 24q-10 8 -24 8h-120h-88h-154h-96q-26 28 -78 86q-2 8 -8 8q-8 2 -14 2h-148h-108h-64h-50h-92h-102q-14 0 -22 -10q-10 -8 -10 -22v-44v-182v-168v-98v-74v-142v-156v-2v-2zM-14 218v220v430h514q26 -28 78 -86q2 -8 8 -8q6 -2 14 -2h116h86 h150h94v-76h-850q-10 0 -20 -6q-10 -8 -12 -18q-26 -68 -46 -118q-20 -52 -36 -88q-10 -30 -20 -52q-8 -22 -14 -40q-26 -64 -30 -74t-32 -82zM4 68q72 186 214 560h524h526q-72 -188 -214 -560h-1050zM472 344q0 -14 10 -22q20 -18 34 -34l26 -26l44 -44q2 0 28 -28l4 -4 q2 0 4 -4q4 0 8 -2q2 -2 6 -2h6q4 0 8 4q4 0 6 2q2 4 2 6l36 36l24 24l46 46l26 26q10 10 10 26q0 14 -10 20q-6 10 -20 10t-24 -10l-58 -58l-20 -20v188q0 12 -10 22q-8 8 -22 8t-22 -8q-10 -10 -10 -22v-50v-36v-62v-40q-26 26 -76 78q-12 10 -26 10t-20 -10 q-10 -10 -10 -24z" />
<glyph unicode="5" d="M106 20q0 10 6 14q126 128 222 222q94 96 164 164l98 98q40 42 72 72l120 120l88 88q16 16 36 38q22 20 48 46q6 6 16 6q8 0 12 -6q6 -6 6 -14q0 -10 -6 -14l-222 -222l-164 -164l-98 -98l-72 -72l-120 -120l-88 -88l-36 -36l-48 -48q-2 -4 -6 -6h-8t-8 2t-6 4 q-6 6 -6 14zM106 20v222v88v76v98v72v140v152q0 8 6 14t14 6t14 -6t6 -14v-216v-162v-94v-70v-136v-150h828q8 0 14 -6t6 -14t-6 -14t-14 -6h-222h-164h-98h-72h-138h-154q-8 0 -14 6t-6 14zM788 872q0 8 6 14t14 6h128h42q8 0 14 -6t6 -14v-130v-42q0 -6 -6 -12t-14 -6 t-14 6t-6 14v112v38h-150q-8 0 -14 6t-6 14z" />
<glyph unicode="6" d="M36 24q0 56 4 110t16 104q20 92 80 152q58 62 180 62h74h54h94h58q64 0 110 -18t78 -52q58 -60 76 -156q16 -98 16 -202q-2 -10 -10 -16q-6 -8 -18 -8h-206h-152h-90h-68h-130h-142q-10 0 -18 8q-6 6 -6 16zM84 50h194h142h84h62h122h132q-2 156 -46 254q-44 96 -182 96 h-72h-54h-96h-58q-136 0 -180 -96q-44 -98 -48 -254zM196 844q0 108 76 184t180 76q34 0 66 -8t60 -26q62 -34 94 -94q34 -60 34 -128t-36 -128q-34 -58 -92 -92q-28 -24 -60 -34q-32 -8 -66 -8q-104 0 -180 76t-76 182zM250 844q0 -86 60 -146q58 -60 142 -60q28 0 52 8 q26 6 50 20q48 28 74 76q28 48 28 102q0 56 -28 104q-26 46 -74 76q-24 12 -50 20q-24 8 -52 8q-84 0 -142 -60q-60 -60 -60 -148zM544 642q0 8 2 12q4 6 12 8q48 30 74 76q28 48 28 104q0 54 -28 102q-26 48 -74 76q-6 2 -10 10q-4 6 -4 12q0 8 2 12q4 6 12 8q28 18 62 26 q32 10 64 10q106 0 180 -76q76 -76 76 -184q-2 -102 -76 -178q-74 -74 -180 -74q-34 0 -66 8t-60 26q-6 4 -10 10t-4 12zM572 424q0 10 6 18q8 6 18 6h60h44h76h48q64 0 110 -18t78 -50q58 -60 76 -158q16 -96 16 -200q-2 -8 -10 -16q-6 -6 -18 -6h-58h-46h-76h-48 q-10 0 -16 8q-8 6 -8 16q0 168 -42 272q-44 104 -186 104q-10 0 -18 6q-6 8 -6 18zM618 648l32 -8q14 -2 30 -2q84 0 144 60t60 146q0 88 -60 148t-144 60q-16 0 -30 -2l-32 -8q42 -38 66 -88q24 -52 24 -110q0 -56 -24 -108q-24 -50 -66 -88zM764 400q66 -56 86 -150 q20 -96 24 -200h134h44q-2 156 -46 254q-44 96 -182 96h-44h-16z" />
<glyph unicode="7" d="M314 246q0 -10 8 -18q4 -2 62 -50q60 -48 160 -58v-72v-24q0 -10 8 -16q6 -8 16 -8q12 0 18 8q8 6 8 16v74v26q104 4 164 68t60 138q0 136 -84 198t-168 106q-70 30 -120 66q-50 34 -50 94q0 50 44 92q42 42 122 42q78 0 130 -36q50 -34 52 -38q8 -8 20 -8q10 0 16 8 q8 8 8 20q0 10 -8 16q-2 2 -54 40q-52 36 -136 44v80v26q0 10 -8 18q-6 6 -16 6q-12 0 -18 -6q-8 -8 -8 -18v-74v-24q-92 -8 -142 -64q-50 -58 -50 -124q0 -84 62 -128q62 -46 134 -82q82 -40 154 -92q72 -54 72 -164q0 -58 -52 -110q-52 -50 -142 -50q-98 0 -158 48l-60 48 q-8 8 -18 8t-18 -8t-8 -18z" />
<glyph unicode="8" d="M146 24v278v204v64v56v90v150v108v46v60q0 10 8 18q6 6 16 6h214h156h92h68h134h146q10 0 18 -6q6 -8 6 -18v-278v-204v-120v-90v-150v-108v-46v-60q0 -10 -6 -16q-8 -8 -18 -8h-212h-158h-92h-68h-134h-146q-10 0 -16 8q-8 6 -8 16zM196 50h756v1006h-756v-190v-816z M298 204q0 10 6 18q8 6 18 6h134h98h58h44h84h92q10 0 18 -6q6 -8 6 -18t-8 -18q-10 -6 -20 -6h-132h-98h-58h-44h-82h-92q-10 0 -18 6q-6 8 -6 18zM298 376q0 10 6 18q8 6 18 6h134h98h58h44h84h92q10 0 18 -6q6 -8 6 -18t-8 -18q-10 -6 -20 -6h-132h-98h-58h-44h-82h-92 q-10 0 -18 6q-6 8 -6 18zM298 552q0 10 6 18q8 6 18 6h134h98h58h44h84h92q10 0 18 -6q6 -8 6 -18t-8 -18q-10 -6 -20 -6h-132h-98h-58h-44h-82h-92q-10 0 -18 6q-6 8 -6 18zM298 724q0 12 6 18q8 8 18 8h134h98h58h44h84h92q10 0 18 -8q6 -6 6 -18q0 -10 -8 -18 q-10 -6 -20 -6h-132h-98h-58h-44h-82h-92q-10 0 -18 6q-6 8 -6 18zM298 900q0 10 6 18q8 6 18 6h134h98h58h44h84h92q10 0 18 -6q6 -8 6 -18t-8 -18q-10 -6 -20 -6h-132h-98h-58h-44h-82h-92q-10 0 -18 6q-6 8 -6 18z" />
<glyph unicode="9" d="M20 552q0 -80 22 -154q20 -74 60 -136q72 -118 196 -190t274 -72q80 0 154 22t136 60q118 74 190 198q72 122 72 272q0 80 -22 154t-60 138q-74 116 -198 188t-272 72q-150 0 -274 -72t-196 -188q-40 -64 -60 -138q-22 -74 -22 -154zM108 552q0 28 20 60q22 32 58 62 q66 56 172 98q104 42 214 42t214 -42q106 -42 172 -98q36 -30 56 -62q22 -32 22 -60t-22 -60q-20 -30 -56 -60q-66 -58 -172 -100q-104 -42 -214 -42t-214 42q-106 42 -172 100q-36 30 -58 60q-20 32 -20 60zM402 552q0 -72 50 -122t120 -50q68 0 118 50q52 50 52 122 t-52 122q-50 52 -118 52q-70 0 -120 -52q-50 -50 -50 -122zM572 608q0 22 14 36t34 14q18 0 34 -14q14 -14 14 -36t-14 -38q-16 -14 -34 -14q-20 0 -34 14q-14 16 -14 38z" />
<glyph unicode="A" d="M54 466q0 -38 26 -64q26 -24 62 -24q24 0 44 10q10 6 18 16q28 26 28 62t-26 62t-64 26q-36 0 -62 -26t-26 -62zM366 452h134v26h-134v-26zM636 466q0 36 26 62q24 26 62 26t64 -26q24 -26 24 -62t-24 -62q-26 -26 -64 -26t-62 24q-26 26 -26 64z" />
<glyph unicode="B" d="M-34 480q0 -10 2 -16t8 -12q32 -22 58 -36q24 -16 40 -28q70 -46 72 -48t46 -30q28 -96 84 -290v-2v-2q0 -4 2 -4q2 -2 2 -4q2 -4 4 -4h4h2q4 0 6 -2q4 -2 6 -2h2h2h2h2q4 0 4 2t4 2q22 18 38 32t28 26q48 42 50 42l30 26q64 -42 194 -126q4 -4 8 -4h8h4h4q6 2 10 6 q6 4 10 10q68 132 120 230q52 100 90 172q32 58 54 100q22 44 38 74q54 102 68 126q12 26 46 92q10 16 20 38q12 20 26 48v2v2v2v2q6 0 8 2v2v4v4v2v2v2v2v4h-4v2t-4 2q-2 0 -2 4h-2h-2h-2h-2h-2h-2h-4h-2h-2h-2h-2h-2h-2q-172 -66 -302 -114q-128 -48 -222 -84 q-76 -28 -132 -50q-56 -20 -96 -36q-132 -50 -164 -62q-34 -12 -120 -44q-20 -8 -48 -20q-28 -10 -66 -24q-8 -2 -12 -8t-6 -14zM58 472q278 102 834 310q-60 -38 -180 -112q-162 -102 -490 -306q-54 36 -164 108zM252 314q100 62 296 184q88 56 264 166 q-160 -132 -478 -396q-4 -2 -6 -6q-2 -2 -2 -6q0 -2 -2 -4q-2 0 -2 -2l-14 -78l-6 -26q-16 56 -50 168zM352 100q6 32 20 100l54 -36q-26 -20 -74 -64zM398 250q220 182 660 548q-128 -244 -384 -730q-92 62 -276 182z" />
<glyph unicode="C" d="M60 444q0 2 4 6q2 4 6 6l56 30l18 10q4 2 10 2h2q6 0 12 -8q2 -6 2 -8v-4q-2 -6 -10 -12l-36 -16l-14 -6q16 -10 48 -28q4 -2 6 -8t0 -14q-2 -2 -6 -4q-4 -4 -8 -4q-2 0 -4 2q-2 0 -2 2l-54 30l-20 10q-4 2 -6 6q-4 6 -4 8zM252 332q2 -6 8 -12l88 -50l30 -16q2 0 4 -2 l2 -2q6 0 10 2q0 2 2 2q2 2 4 6t2 8v4q0 6 -8 12l-88 50l-28 16q-4 2 -10 2h-2q-6 0 -12 -8q-2 -4 -2 -10v-2zM252 552q0 -4 2 -8q2 -6 6 -8t8 -2q2 0 4 2h6l86 50l30 18q6 2 8 8v4q0 6 -2 10q-2 6 -8 8h-6q-2 2 -4 2t-4 -2l-88 -50l-30 -18q-4 -2 -6 -8q-2 -4 -2 -6z M486 686q0 -4 2 -10q2 -4 8 -6q8 -2 14 0l48 28l16 8q22 -12 64 -36q2 0 4 -2l2 -2l12 6q6 2 8 4q2 4 2 10v2q-2 8 -8 12l-56 30l-18 10q-4 2 -8 2t-8 -2l-56 -30l-18 -10q-4 -2 -8 -8v-6zM488 202q0 -2 2 -4q0 -6 8 -10l54 -30l18 -10q4 0 6 -2l2 -2h2q4 0 4 4l56 30l18 10 q4 2 6 8q2 4 2 6q0 4 -2 8q-2 6 -10 8h-6q-4 2 -8 0l-46 -28l-16 -10q-22 12 -64 38q-4 2 -10 0h-2q-6 0 -12 -8q-2 -4 -2 -8zM752 268q0 -4 2 -8t6 -8q4 -2 8 -2q2 0 4 2t6 2l86 50l30 16q4 2 8 10v6t-2 8t-8 6q-4 2 -6 2q-4 0 -8 -2l-88 -50l-30 -16q-4 -2 -6 -10 q-2 -2 -2 -6zM752 616q2 -8 8 -12l88 -50l30 -18h4l2 -2q4 0 10 2q4 2 6 8q2 4 2 8v4q0 6 -8 10l-88 50l-28 18q-4 2 -10 2h-2q-8 -2 -12 -10q-2 -4 -2 -8v-2zM988 476q2 -8 10 -12l34 -16l12 -4q-16 -10 -46 -28q-6 -2 -8 -8t0 -14q4 -6 8 -8t6 -2q2 2 4 2h6l54 30l20 10 q4 4 6 8q4 4 4 6t-4 6q-2 6 -6 8l-56 30l-18 10q-4 2 -10 2h-2q-6 -2 -12 -10q-2 -4 -2 -8v-2z" />
<glyph unicode="D" d="M-16 138q0 -56 40 -98q38 -40 98 -40q56 0 98 40q26 26 34 58q6 20 6 40q0 56 -40 98q-42 40 -98 40t-98 -40q-40 -42 -40 -98zM264 400q10 -8 32 -24q40 58 118 174q-10 8 -32 22q-38 -56 -118 -172zM438 810q0 56 40 98q40 40 98 40q60 0 100 -40q38 -42 38 -98 t-38 -98q-40 -40 -100 -40q-58 0 -98 40q-40 42 -40 98zM738 550l120 -174l30 24q-38 58 -118 172q-10 -6 -32 -22zM892 138q0 -56 40 -98q40 -40 98 -40t98 40q42 42 42 98t-40 98q-40 40 -100 40q-56 0 -96 -40q-42 -42 -42 -98z" />
<glyph unicode="E" d="M16 328q0 -6 2 -10q2 -2 8 -6q80 -46 142 -80q60 -34 104 -60q34 -20 60 -36q28 -14 46 -26q78 -44 90 -50q10 -6 96 -56q4 0 4 -2q2 -2 4 -2h6q2 0 2 4q80 46 140 80q62 36 106 60q34 20 60 36q26 14 46 26q78 44 90 50q10 8 96 56q6 4 8 8q4 4 4 8v64v48v84v52 q0 2 -2 4q0 2 -2 2q0 4 -2 4t-6 4q-80 46 -140 80q-62 36 -106 60q-34 20 -60 36q-26 14 -46 26q-78 44 -90 50q-10 8 -96 56q-4 0 -4 2q-2 2 -4 2h-4q-4 0 -4 -4q-80 -46 -140 -80t-104 -60q-36 -20 -62 -36q-26 -14 -46 -26q-78 -44 -88 -50q-12 -6 -98 -56q-2 0 -4 -2 q0 -2 -4 -6q0 -2 -2 -4v-2v-66v-48v-32v-52v-50zM50 338v26v178q168 -96 504 -286v-206zM68 576l486 276v-208q-86 -50 -260 -148q-16 -8 -46 -26q-60 36 -180 106zM284 450q96 54 288 164q96 -54 288 -164q-96 -56 -288 -166q-96 56 -288 166zM590 50v142v64 q168 96 504 286v-204zM590 648v140v64q162 -94 486 -280l-180 -102q-102 60 -306 178z" />
<glyph unicode="F" d="M334 742q2 -74 10 -152v-4v-6v-4v-22q2 -12 2 -24q4 -20 4 -36q2 -18 4 -38q12 -122 40 -248t44 -152q18 -26 64 -42q46 -14 88 -14h12h12q40 2 82 20q42 16 50 92q2 28 4 88q4 60 6 132q2 86 6 172q2 84 8 114q16 84 20 158v56q0 42 -2 78q-8 74 -38 128q-32 54 -142 60 h-12q-72 0 -150 -58q-84 -60 -100 -150q-12 -70 -12 -138v-10zM370 772v24q0 44 8 86q14 74 84 128q72 52 136 52h4h2q84 -6 112 -40q26 -36 36 -116q6 -40 6 -86v-8q-2 -50 -10 -106q-12 32 -28 66t-32 58q-30 44 -62 74q-30 30 -46 42l2 36l2 12q0 8 -6 14q-4 4 -12 4 t-14 -4q-4 -6 -4 -14l-2 -36l-2 -12q-18 -14 -64 -52q-44 -40 -74 -100l-20 -44q-10 -24 -14 -44q-2 34 -2 66zM372 590q2 18 16 76t44 114q26 52 66 88q38 36 56 50l42 -42t58 -68q26 -38 50 -102t28 -74v-4q-4 -32 -6 -116t-6 -176q-2 -70 -4 -130q-4 -60 -6 -86 q-6 -50 -30 -64q-24 -12 -68 -18h-12h-10q-40 0 -76 12t-48 28q-12 20 -40 142q-28 120 -40 242q-4 18 -4 38q0 18 -4 36q-2 14 -4 26q0 14 -2 28z" />
<glyph unicode="G" d="M320 770q0 50 10 98q12 60 34 108q30 62 78 94q50 32 110 34h4q36 0 72 -18q38 -16 68 -46q32 -32 62 -96q26 -58 26 -154v-18q0 -50 -10 -100q-12 -52 -22 -102q-8 -40 -14 -76q-8 -36 -10 -70q-4 -8 -8 -14q-6 -4 -14 -4h-68h-50h-88h-54q-6 0 -10 4q-6 4 -8 10 q-6 22 -16 48t-24 56q-24 50 -44 106q-22 56 -22 118q-2 12 -2 22zM352 772q0 -12 2 -24q2 -56 22 -110q20 -52 46 -100q10 -24 20 -50q10 -24 18 -46h62h44h78h48q2 32 10 64q6 34 14 72q12 48 20 98q10 48 10 96v18q0 88 -24 138q-26 58 -56 88q-24 26 -54 40 q-30 12 -60 12h-2q-52 -2 -92 -30q-38 -26 -66 -80q-20 -42 -32 -96q-8 -44 -8 -90zM410 196q0 10 2 24t6 30q2 18 4 38q4 22 6 44q0 8 6 12q4 6 12 6h66h50h84h52q4 0 8 -4l8 -4q2 -2 2 -6v-8q-4 -54 -10 -92q-4 -38 -8 -50v-14q-2 -6 -2 -12q-6 -40 -28 -98 q-22 -60 -116 -62h-4h-2h-6q-30 0 -50 10t-36 26q-32 34 -38 82t-6 78zM444 176q0 -18 4 -44q4 -42 30 -72q14 -12 30 -18t38 -6h6q64 2 84 40q18 38 24 92q0 8 2 16q2 6 2 12q2 14 6 44t8 74h-56h-42h-72h-44q-2 -18 -6 -34q-2 -18 -4 -34q-4 -16 -6 -30q-2 -12 -2 -20 q-2 -8 -2 -20z" />
<glyph unicode="H" d="M20 552q0 -80 22 -152q22 -74 60 -138q74 -118 198 -190t272 -72t272 72t196 190q40 64 62 138q22 72 22 152q0 148 -72 272q-74 124 -190 198q-64 38 -138 60t-152 22q-80 0 -154 -22q-72 -22 -136 -60q-118 -74 -190 -198t-72 -272zM56 552q0 76 20 144q20 70 56 128 q70 110 186 178q114 66 254 66q74 0 144 -20q68 -20 128 -56q110 -70 176 -186q68 -116 68 -254h-270h-200h-120h-86h-148h-106h-44h-58z" />
<glyph unicode="I" d="M20 552q0 -80 22 -152q22 -74 60 -138q74 -118 198 -190t272 -72t272 72t196 190q40 64 62 138q22 72 22 152q0 148 -72 272q-74 124 -190 198q-64 38 -138 60t-152 22q-80 0 -154 -22q-72 -22 -136 -60q-118 -74 -190 -198t-72 -272zM554 552v110v80v140v12v74q0 8 4 14 q6 4 14 4t12 -4q6 -6 6 -14v-104v-78v-134v-82h398q8 0 14 -4q4 -6 4 -14t-6 -12q-6 -6 -12 -6h-110h-80h-140h-86q-8 0 -14 6q-4 4 -4 12z" />
<glyph unicode="J" horiz-adv-x="528" d="M-280 538q0 20 16 34q10 10 30 10h314h106v420q0 20 14 36q16 10 36 10q14 0 30 -10q14 -16 14 -36v-314v-106h420q20 0 30 -10q14 -14 14 -34t-14 -36q-10 -10 -30 -10h-314h-106v-418q0 -20 -14 -36q-16 -10 -30 -10q-20 0 -36 10q-14 16 -14 36v314v104h-420 q-20 0 -30 10q-16 16 -16 36zM96 630v2v-2z" />
<glyph unicode="K" d="M22 118q2 -6 8 -14q4 -6 12 -6t16 2q112 57 112 58l44 22q24 -54 70 -164q4 -8 10 -10q8 -4 16 -4q10 0 16 4q8 6 10 14q14 42 26 72q10 34 18 56q34 92 34 94t20 60q34 -96 100 -282q4 -8 10 -14q8 -4 16 -4t14 4q8 4 10 10q49 116 50 116t20 48q54 -26 158 -80 q8 -2 14 -2q8 0 14 6q12 8 16 14v8v8q-30 78 -50 136q-22 58 -36 100q-12 34 -20 60q-10 24 -16 44q-26 74 -30 84q-4 12 -34 96q26 36 42 80q14 44 14 94q0 118 -84 206q-84 84 -204 84q-118 0 -204 -84q-82 -88 -82 -206q0 -50 14 -94q16 -44 42 -80q-28 -80 -48 -138 q-24 -56 -38 -100q-12 -34 -20 -60q-10 -24 -16 -42q-26 -76 -30 -88q-4 -10 -34 -92v-8v-8zM96 176q54 146 158 434q8 -6 14 -12q8 -8 16 -14l4 -2h4q8 -6 16 -10q10 -6 18 -8t14 -6q6 -2 14 -4q41 -124 42 -124l18 -52q-34 -92 -104 -282q-20 46 -56 130q-4 4 -6 8 q-4 2 -8 6h-6h-2h-6l-4 -4l-90 -42zM208 832v6q0 90 64 160q72 72 166 72q96 0 166 -70t70 -168q0 -44 -16 -84q-12 -38 -38 -70q-24 -26 -54 -48q-28 -20 -62 -32q-34 -8 -64 -8t-62 8q-34 12 -66 30q-28 22 -52 50q-26 32 -40 70q-12 40 -12 84z" />
<glyph unicode="L" d="M10 672q0 -8 2 -14q4 -12 14 -24q34 -32 58 -58q26 -24 46 -42l76 -76q0 -2 46 -46q6 -6 10 -18q4 -14 4 -22q-8 -46 -14 -82l-10 -60q-18 -104 -18 -108q0 -2 -12 -64q-2 -16 2 -26q4 -8 6 -14q8 -10 24 -14h6q14 0 28 6q40 22 72 40q32 16 54 28q92 48 94 50q2 0 58 30 q8 2 22 2q12 0 18 -2q42 -22 74 -38q30 -16 54 -30q92 -48 94 -48q2 -2 58 -32l12 -4q8 -2 12 -2q10 0 16 2q8 4 14 12q6 6 8 14q2 10 2 26q-8 46 -14 82t-10 62q-18 102 -18 106q0 2 -12 64q-2 8 2 22q4 12 12 18q34 34 60 58q24 26 42 44q74 72 76 74q0 2 46 46 q8 12 12 22q2 8 2 16v6v2v2v2q-4 10 -14 16q-10 8 -26 10q-46 6 -82 12q-34 6 -60 10q-102 14 -104 14q-4 2 -66 10q-8 0 -18 10q-12 8 -14 16q-22 42 -36 74q-16 34 -28 56q-46 94 -46 96l-30 60q-14 28 -40 28t-38 -28q-22 -42 -38 -74q-16 -34 -26 -56q-46 -94 -48 -96 q0 -4 -28 -60q-4 -8 -14 -16q-10 -6 -18 -10q-48 -6 -82 -12q-36 -4 -62 -8q-102 -16 -104 -16t-64 -10q-16 -2 -28 -10q-10 -8 -12 -18q-2 -6 -2 -10z" />
<glyph unicode="M" d="M24 552q0 -80 22 -154q20 -74 60 -136q72 -118 196 -190t274 -72q80 0 154 22t136 60q118 74 190 198q72 122 72 272q0 80 -22 154t-60 138q-74 116 -198 188t-272 72q-80 0 -154 -22q-74 -20 -138 -60q-116 -72 -188 -196t-72 -274zM304 854v4v2v2q2 14 50 36t222 22 t222 -22t50 -36q2 -4 4 -4v-4q-14 -90 -24 -158q-10 -66 -18 -116q-6 -38 -10 -68q-6 -30 -8 -50q-14 -88 -16 -100t-16 -108q-2 -36 -62 -52q-58 -18 -122 -18q-66 0 -124 18q-58 16 -60 52q-14 90 -24 158q-10 66 -16 116q-6 38 -10 68t-8 50q-12 88 -14 100t-16 108z M340 820q12 -78 20 -136q10 -58 16 -102q4 -34 8 -58q4 -26 6 -46q12 -74 14 -86q2 -10 14 -94q4 2 8 6q4 2 10 6q-6 30 -12 76q-8 46 -16 94q-10 70 -18 128l-10 58q6 -16 62 -26t134 -10t134 10t60 26l-8 -58t-20 -128q-6 -48 -14 -94q-6 -46 -12 -76q6 -4 8 -6 q4 -2 10 -2q12 78 20 138q8 58 16 100q4 34 8 60q4 24 6 44q12 76 14 86q0 10 14 94q-28 -10 -82 -20q-54 -8 -154 -8q-27 -1 -52 -1q-60 0 -100 7q-56 8 -84 18zM340 858q16 -8 76 -20q60 -10 160 -10t158 10q60 12 78 20q-18 8 -78 18q-58 12 -158 12t-160 -12 q-60 -10 -76 -18zM380 688q0 16 58 28t138 12t138 -12q56 -12 56 -28t-56 -28q-58 -12 -138 -12t-138 12t-58 28zM424 258q0 -8 40 -24q38 -16 112 -16t112 16t38 24q0 2 -2 8q-4 4 -12 6v-4v-2q-4 -18 -38 -26t-76 -8h-18q-44 0 -82 8q-48 8 -52 26v2t-2 4q-10 -6 -14 -8 q-6 -4 -6 -6z" />
<glyph unicode="N" d="M20 82q0 -34 22 -58q24 -24 58 -24h226h166h98h72h142h156q34 0 58 24q22 24 22 58v128v98v56v42v80v90v4q0 32 -20 54q-24 24 -58 24h-102h-36q-16 0 -30 6q-14 4 -24 18l-58 56l-20 20q-10 10 -26 18q-14 6 -30 6h-54h-40h-68h-42q-18 0 -34 -6q-16 -8 -26 -20 q-26 -26 -74 -78q-12 -10 -26 -16q-14 -8 -30 -8h-106h-36q-34 0 -58 -22q-22 -24 -22 -58v-130v-94v-56v-42v-82v-88zM62 84v128v96v56v42v80v90q0 16 12 28t30 12h118h40q16 0 30 6t24 18l66 66l20 20q6 8 14 12t16 4h52h40h70h42q8 0 16 -4l12 -8l66 -68l22 -22 q12 -10 26 -16q14 -8 30 -8h116h38q16 0 28 -12t12 -28v-130v-94v-56v-42v-80v-90q0 -20 -12 -30t-28 -10h-226h-166h-98h-72h-142h-154q-18 0 -30 12t-12 28zM266 350q0 -110 78 -188t188 -78t188 78t78 188t-78 188t-188 78t-188 -78t-78 -188zM306 350q0 94 66 160 t160 66t160 -66t66 -160t-66 -160t-160 -66t-160 66t-66 160zM348 350q0 -76 54 -130q52 -54 130 -54t132 54q52 54 52 130q0 78 -54 132t-130 54t-130 -54t-54 -132zM388 350q0 60 42 102t102 42t102 -42t42 -102q0 -58 -42 -102q-42 -42 -102 -42t-102 42q-42 44 -42 102z " />
<glyph unicode="O" d="M2 0h180q280 282 844 844q-58 60 -176 182q-284 -282 -848 -848v-178zM72 160q0 26 18 44l138 138l102 102l62 62l44 44l86 86l96 96l42 -42q-190 -190 -570 -572q-18 18 -18 42zM124 86q84 86 148 150l112 112q38 36 64 64l50 50l94 94l102 102q14 -14 44 -42 q-178 -176 -532 -530q-20 -16 -44 -16q-22 0 -38 16zM652 764l32 32q38 -40 114 -116q-10 -10 -32 -30zM714 826q46 46 136 134l114 -114q-46 -44 -136 -134z" />
<glyph unicode="P" />
<glyph unicode="Q" d="M20 552q0 148 72 274q72 124 190 196q62 40 136 62t154 22q82 0 154 -22q74 -22 138 -60q118 -74 190 -198t72 -274q0 -80 -22 -154q-22 -72 -60 -136q-74 -118 -198 -190t-274 -72q-80 0 -154 22t-136 62q-118 72 -190 196q-72 126 -72 272zM70 552q0 -72 18 -138 q20 -68 56 -126q66 -108 180 -174q112 -64 248 -64q74 0 140 20q68 18 126 54q108 66 172 180q66 114 66 248q0 136 -66 250q-64 114 -172 180q-58 36 -126 54q-66 20 -140 20q-72 0 -140 -20q-66 -18 -124 -54q-108 -66 -174 -180q-64 -114 -64 -250zM182 552q0 12 6 18 q8 8 18 8h192h140h84h62h120h132q10 0 18 -8q6 -6 6 -18v-6q0 -156 -112 -270q-114 -114 -276 -114q-160 0 -276 114q-114 116 -114 276zM234 526q0 -72 46 -142q46 -72 118 -116q38 -26 84 -40q44 -14 90 -14q136 0 232 92q96 90 106 222h-176h-132h-76h-58h-112h-122v-2z M302 726q0 -34 22 -58q24 -24 58 -24q12 0 22 4q20 4 36 20q24 24 24 58q0 32 -24 56t-58 24t-58 -22q-22 -24 -22 -58zM682 726q0 -34 24 -58q22 -24 58 -24q34 0 56 24q24 24 24 58v6q0 28 -22 50q-24 24 -58 24q-36 0 -58 -22q-24 -24 -24 -58z" />
<glyph unicode="R" d="M20 552q0 80 22 154t60 138q74 116 198 190q124 72 272 72q82 0 154 -22q74 -22 138 -60q118 -74 190 -198t72 -274q0 -80 -22 -154q-22 -72 -60 -136q-74 -118 -198 -190t-274 -72q-80 0 -154 22t-136 62q-118 72 -190 196q-72 126 -72 272zM70 552q0 -72 18 -138 q20 -68 56 -126q66 -108 180 -174q112 -64 248 -64q74 0 140 20q68 18 126 54q108 66 172 180q66 114 66 248q0 136 -66 250q-64 114 -172 180q-58 36 -126 54q-66 20 -140 20q-72 0 -140 -20q-66 -18 -124 -54q-108 -66 -174 -180q-64 -114 -64 -250zM188 552 q0 -160 116 -276q114 -114 276 -114t272 114q112 116 112 276q0 12 -8 18q-6 8 -16 8q-12 0 -18 -8q-8 -6 -8 -18q0 -140 -98 -238q-100 -100 -240 -100t-238 100q-100 98 -100 238q0 12 -6 18q-8 8 -18 8t-18 -8q-8 -6 -8 -18zM302 726q0 -34 22 -58q24 -24 58 -24 q12 0 22 4q20 4 36 20q24 24 24 58q0 32 -24 56t-58 24t-58 -22q-22 -24 -22 -58zM682 726q0 -34 24 -58q22 -24 58 -24q34 0 56 24q24 24 24 58v6q0 28 -22 50q-24 24 -58 24q-36 0 -58 -22q-24 -24 -24 -58z" />
<glyph unicode="S" d="M20 552q0 80 22 154t60 138q74 116 198 190q124 72 272 72q82 0 154 -22q74 -22 138 -60q118 -74 190 -198t72 -274q0 -80 -22 -154q-22 -72 -60 -136q-74 -118 -198 -190t-274 -72q-80 0 -154 22t-136 62q-118 72 -190 196q-72 126 -72 272zM70 552q0 -72 18 -138 q20 -68 56 -126q66 -108 180 -174q112 -64 248 -64q74 0 140 20q68 18 126 54q108 66 172 180q66 114 66 248q0 74 -20 140q-18 68 -54 126q-68 108 -180 172q-114 66 -250 66q-72 0 -140 -20q-66 -18 -124 -54q-108 -66 -174 -180q-64 -114 -64 -250zM284 370q0 -10 8 -18 q6 -6 16 -6h140h102h60h44h88h94q12 0 18 6q8 8 8 18t-8 18q-6 6 -18 6h-138h-102h-60h-44h-88h-96q-10 0 -16 -6q-8 -8 -8 -18zM302 726q0 -34 22 -58q24 -24 58 -24q12 0 22 4q20 4 36 20q24 24 24 58q0 32 -24 56t-58 24t-58 -22q-22 -24 -22 -58zM682 726q0 -34 24 -58 q22 -24 58 -24q34 0 56 24q24 24 24 58v6q0 28 -22 50q-24 24 -58 24q-36 0 -58 -22q-24 -24 -24 -58z" />
<glyph unicode="T" d="M20 552q0 80 22 154t60 138q74 116 198 190q124 72 272 72q82 0 154 -22q74 -22 138 -60q118 -74 190 -198t72 -274q0 -80 -22 -154q-22 -72 -60 -136q-74 -118 -198 -190t-274 -72q-80 0 -154 22t-136 62q-118 72 -190 196q-72 126 -72 272zM70 552q0 -72 18 -138 q20 -68 56 -126q66 -108 180 -174q112 -64 248 -64q74 0 140 20q68 18 126 54q108 66 172 180q66 114 66 248q0 74 -20 140q-18 68 -54 126q-68 108 -180 172q-114 66 -250 66q-72 0 -140 -20q-66 -18 -124 -54q-108 -66 -174 -180q-64 -114 -64 -250zM284 240q0 118 84 204 q86 84 204 84q120 0 204 -82q82 -84 86 -202v-4v-4v-4q0 -6 -6 -10q-8 -8 -20 -8h-138h-102h-60h-44h-88h-96q-10 0 -16 8q-8 6 -8 18zM302 726q0 -34 22 -58q24 -24 58 -24q12 0 22 4q20 4 36 20q24 24 24 58q0 32 -24 56t-58 24t-58 -22q-22 -24 -22 -58zM336 264h126h92 h160h98q-10 90 -76 150q-68 62 -160 62t-162 -62q-70 -60 -78 -150zM682 726q0 -34 24 -58q22 -24 58 -24q34 0 56 24q24 24 24 58v6q0 28 -22 50q-24 24 -58 24q-36 0 -58 -22q-24 -24 -24 -58z" />
<glyph unicode="U" d="M20 552q0 80 22 154t60 138q74 116 198 190q124 72 272 72q82 0 154 -22q74 -22 138 -60q118 -74 190 -198t72 -274q0 -80 -22 -154q-22 -72 -60 -136q-74 -118 -198 -190t-274 -72q-80 0 -154 22t-136 62q-118 72 -190 196q-72 126 -72 272zM70 552q0 -72 18 -138 q20 -68 56 -126q66 -108 180 -174q112 -64 248 -64q74 0 140 20q68 18 126 54q108 66 172 180q66 114 66 248q0 74 -20 140q-18 68 -54 126q-68 108 -180 172q-114 66 -250 66q-72 0 -140 -20q-66 -18 -124 -54q-108 -66 -174 -180q-64 -114 -64 -250zM284 240q0 -12 8 -18 q6 -8 16 -8q12 0 18 8q8 6 8 18q0 98 68 168q70 70 170 70q102 0 170 -68q70 -70 70 -170q0 -12 8 -18q6 -8 16 -8q12 0 18 8q8 6 8 18q0 118 -86 204q-84 84 -204 84q-118 0 -204 -84q-84 -86 -84 -204zM302 726q0 -34 22 -58q24 -24 58 -24q12 0 22 4q20 4 36 20 q24 24 24 58q0 32 -24 56t-58 24t-58 -22q-22 -24 -22 -58zM682 726q0 -34 24 -58q22 -24 58 -24q34 0 56 24q24 24 24 58v6q0 28 -22 50q-24 24 -58 24q-36 0 -58 -22q-24 -24 -24 -58z" />
<glyph unicode="V" d="M20 552q0 80 22 154t60 138q74 116 198 190q124 72 272 72q82 0 154 -22q74 -22 138 -60q118 -74 190 -198t72 -274q0 -80 -22 -154q-22 -72 -60 -136q-74 -118 -198 -190t-274 -72q-80 0 -154 22t-136 62q-118 72 -190 196q-72 126 -72 272zM70 552q0 -72 18 -138 q20 -68 56 -126q66 -108 180 -174q112 -64 248 -64q74 0 140 20q68 18 126 54q108 66 172 180q66 114 66 248q0 74 -20 140q-18 68 -54 126q-68 108 -180 172q-114 66 -250 66q-72 0 -140 -20q-66 -18 -124 -54q-108 -66 -174 -180q-64 -114 -64 -250zM302 726q0 -34 22 -58 q24 -24 58 -24q12 0 22 4q20 4 36 20q24 24 24 58q0 32 -24 56t-58 24t-58 -22q-22 -24 -22 -58zM350 260q0 -6 4 -14l10 -10q6 -4 12 -4h8q4 2 6 4q58 34 102 58q44 26 76 44q128 74 132 76q2 2 80 48q12 4 14 14v6q0 8 -2 14q-6 12 -16 14h-6q-6 0 -14 -2 q-58 -34 -102 -60q-44 -24 -76 -44q-128 -74 -132 -76q-2 -2 -80 -46q-12 -6 -14 -16q0 -2 -2 -6zM682 726q0 -34 24 -58q22 -24 58 -24q34 0 56 24q24 24 24 58v6q0 28 -22 50q-24 24 -58 24q-36 0 -58 -22q-24 -24 -24 -58z" />
<glyph unicode="W" d="M20 552q0 80 22 154t60 138q74 116 198 190q124 72 272 72q82 0 154 -22q74 -22 138 -60q118 -74 190 -198t72 -274q0 -80 -22 -154q-22 -72 -60 -136q-74 -118 -198 -190t-274 -72q-80 0 -154 22t-136 62q-118 72 -190 196q-72 126 -72 272zM70 552q0 -72 18 -138 q20 -68 56 -126q66 -108 180 -174q112 -64 248 -64q74 0 140 20q68 18 126 54q108 66 172 180q66 114 66 248q0 74 -20 140q-18 68 -54 126q-68 108 -180 172q-114 66 -250 66q-72 0 -140 -20q-66 -18 -124 -54q-108 -66 -174 -180q-64 -114 -64 -250zM302 726q0 -34 22 -58 q24 -24 58 -24q12 0 22 4q20 4 36 20q24 24 24 58t-24 58q-24 22 -58 22t-58 -22q-22 -24 -22 -58zM350 486q2 -4 2 -6q2 -10 14 -16l109 -64h-1q-6 4 46 -26q-52 -32 -154 -92q-12 -6 -14 -16q-2 -8 2 -20l10 -10q6 -4 12 -4h6q2 2 8 4q128 74 130 74l52 32 q62 -36 184 -106q2 -2 6 -4h8q8 0 14 4q4 2 8 10t2 20q-2 10 -14 16l-110 64l-44 28q52 30 154 90q12 6 14 16v6q0 6 -2 14q-6 10 -16 14h-6q-6 0 -14 -4q-130 -74 -130 -74.5t-54 -29.5q-60 34 -182 104q-8 6 -20 4q-10 -4 -16 -14q-4 -8 -4 -14zM682 726q0 -34 24 -58 q22 -24 58 -24q34 0 56 24q24 24 24 58t-24 58q-22 22 -56 22q-36 0 -58 -22q-24 -24 -24 -58z" />
<glyph unicode="X" d="M20 552q0 80 22 154t60 138q74 116 198 190q124 72 272 72q82 0 154 -22q74 -22 138 -60q118 -74 190 -198t72 -274q0 -80 -22 -154q-22 -72 -60 -136q-74 -118 -198 -190t-274 -72q-80 0 -154 22t-136 62q-118 72 -190 196q-72 126 -72 272zM70 552q0 -72 18 -138 q20 -68 56 -126q66 -108 180 -174q112 -64 248 -64q74 0 140 20q68 18 126 54q108 66 172 180q66 114 66 248q0 74 -20 140q-18 68 -54 126q-68 108 -180 172q-114 66 -250 66q-72 0 -140 -20q-66 -18 -124 -54q-108 -66 -174 -180q-64 -114 -64 -250zM210 394q0 -10 8 -18 q6 -6 16 -6q12 0 18 6q8 8 8 18q0 38 24 62q26 26 64 26q36 0 62 -26q26 -24 26 -62q0 -58 40 -98q42 -38 96 -38q56 0 98 40q40 40 40 96q0 38 26 62q26 26 62 26q38 0 62 -26q26 -24 26 -62q0 -10 8 -18q6 -6 16 -6q12 0 18 6q8 8 8 18v6q0 52 -38 90q-42 42 -100 42 t-98 -42q-40 -40 -40 -96q0 -36 -24 -62q-26 -26 -64 -26q-36 0 -62 26t-26 62q0 58 -40 98q-42 40 -96 40q-56 0 -98 -42q-40 -40 -40 -96zM302 726q0 -34 22 -58q24 -24 58 -24q12 0 22 4q20 4 36 20q24 24 24 58q0 32 -24 56t-58 24t-58 -22q-22 -24 -22 -58zM682 726 q0 -34 24 -58q22 -24 58 -24q34 0 56 24q24 24 24 58v6q0 28 -22 50q-24 24 -58 24q-36 0 -58 -22q-24 -24 -24 -58z" />
<glyph unicode="a" d="M-40 566q0 76 20 152q36 142 142 250q8 8 16 8q10 0 18 -8t8 -18t-8 -18q-96 -98 -130 -226q-18 -69 -18 -137q0 -60 14 -119q16 -68 50 -130q32 -62 84 -116q72 -74 164 -112t192 -38t192 38t162 112q52 54 86 116t50 130q13 57 13 115q0 70 -19 141q-34 128 -130 226 q-8 8 -8 20q0 10 8 16q8 8 20 8q10 0 16 -8q56 -58 92 -128q38 -68 54 -144q14 -56 14 -114v-14q0 -76 -18 -152q-38 -142 -142 -250q-76 -82 -178 -124t-212 -42q-112 0 -212 44q-102 42 -178 122q-58 58 -94 128q-36 68 -54 144q-14 64 -14 128zM486 654v112v82v144v4v84 q0 12 8 18q8 8 18 8t18 -8q6 -6 6 -18v-110v-82v-142v-88q0 -10 -6 -18q-8 -10 -18 -10t-18 8q-8 6 -8 16z" />
<glyph unicode="b" d="M14 554q0 148 72 272t188 196q64 40 138 62t154 22t154 -22t138 -60q118 -74 188 -198q72 -124 72 -272q0 -150 -72 -274q-70 -124 -188 -196q-64 -40 -138 -62t-154 -22t-154 22t-138 62q-116 74 -188 198t-72 272zM62 554q0 -74 20 -140q20 -68 56 -126 q66 -106 180 -172q112 -66 248 -66q72 0 140 20t126 56q106 66 172 178q66 114 66 250q0 72 -20 140q-20 66 -56 124q-66 108 -180 174q-112 64 -248 64q-72 0 -140 -18q-66 -20 -126 -56q-106 -66 -172 -180q-66 -112 -66 -248zM496 554q0 28 20 50q22 20 50 20 q30 0 50 -20q20 -22 20 -50q0 -30 -20 -50t-50 -20q-28 0 -50 20q-20 20 -20 50zM544 740q0 10 8 18q8 6 18 6q90 0 152 -62t62 -152q-2 -8 -10 -14q-8 -8 -18 -8t-18 8q-6 6 -6 18q0 68 -48 114q-48 48 -114 48q-10 0 -18 6q-8 8 -8 18zM544 916q0 10 8 18q8 6 18 6 q160 0 276 -114q114 -116 114 -276q-2 -8 -10 -14q-8 -8 -18 -8t-18 8q-6 6 -6 18q0 140 -100 238q-98 100 -238 100q-10 0 -18 6q-8 8 -8 18zM548 554q0 -8 6 -14q4 -4 12 -4t12 4q6 6 6 14t-6 12q-4 6 -12 6t-12 -6q-6 -4 -6 -12z" />
<glyph unicode="c" d="M84 208q12 -30 22 -50q10 -22 18 -38q30 -64 30 -66q2 -2 20 -40q2 -8 10 -12q6 -2 14 -2h198h146h88h62h126h136q8 0 14 4t10 10q14 30 24 52l18 36q30 64 30 66t18 40v2v2v4v4v2v4v2v2q-36 96 -62 166q-28 72 -48 124q-16 42 -26 72q-12 32 -22 54q-34 92 -38 106 q-6 12 -44 114q-8 24 -28 40t-44 18v30v10q0 56 -40 98t-94 42h-70h-22q-58 0 -96 -40q-38 -42 -38 -100v-30v-10q-24 -2 -44 -18t-28 -40q-36 -96 -64 -166q-26 -72 -46 -124q-16 -42 -28 -72q-10 -32 -20 -54q-34 -92 -40 -106q-4 -12 -42 -114v-2v-2v-4v-2v-4v-4v-2v-2z M144 248q76 200 226 600q10 6 16 14t18 8h90h66h114h70q12 0 22 -6q8 -4 12 -16q34 -90 58 -156q26 -68 44 -118q16 -38 26 -68q12 -30 20 -52q32 -86 36 -98q6 -12 42 -108h-860zM152 194h426h426q-22 -46 -68 -140h-720q-22 46 -64 140zM446 924v40q0 34 26 60 q24 26 58 26h66h24q34 0 58 -26t24 -60v-30v-10h-256z" />
<glyph unicode="d" d="M2 672v6v6l8 12q6 6 14 6q54 8 96 14q40 6 70 10q118 16 122 18q2 0 74 10q54 112 162 334q6 14 24 14q16 0 22 -14q24 -50 42 -86q18 -38 32 -66q54 -110 54 -112q2 -2 34 -70q120 -18 362 -52q8 0 14 -6q6 -4 8 -12q2 -4 2 -8t-2 -8q-2 -6 -8 -8q-38 -40 -68 -68 l-52 -52l-88 -88t-56 -54q20 -120 60 -362q0 -2 2 -6q2 -2 2 -4q0 -12 -6 -18q-8 -8 -18 -8q-4 0 -6 2q-2 0 -6 2q-48 26 -84 46t-62 34q-106 56 -110 58q-2 0 -66 34q-108 -56 -324 -172q-4 -2 -8 -2q-4 -2 -6 -2q-6 0 -10 2q-2 0 -6 2q-4 6 -6 12q-4 6 -4 14q10 54 18 96 q6 42 12 72q20 120 20 124q2 2 14 76q-88 88 -264 262q-6 4 -8 12zM84 660q78 -80 236 -236q4 -6 6 -12v-10q-8 -50 -14 -86q-6 -38 -12 -64q-18 -110 -18 -112t-12 -68q98 50 292 154q4 2 6 6q2 2 6 2q2 0 4 -2q2 0 6 -2q44 -24 76 -40q34 -18 56 -30q96 -52 100 -52 q2 -2 60 -34q-18 110 -56 328v12q2 6 6 10q36 34 62 60q26 28 46 46l80 80t48 50q-108 16 -328 48q-4 0 -10 4q-4 6 -10 10q-22 46 -38 80q-14 32 -26 58q-46 98 -48 100q0 2 -28 62q-50 -100 -146 -300q-2 -4 -8 -10q-4 -4 -12 -4q-48 -6 -86 -12q-36 -6 -62 -10 q-106 -16 -108 -16q-4 0 -68 -10z" />
<glyph unicode="e" d="M126 200v184v138v80v60v114v40v88q0 84 60 142t142 58h98h78h72h52h100h92t142 -60q58 -58 58 -140v-184v-136v-80v-60v-116v-128q0 -84 -58 -142t-142 -58h-130h-94h-56h-42h-82h-88q-86 0 -144 60q-58 58 -58 140zM176 200q0 -62 44 -106t108 -44h128h96h56h42h80h90 q64 0 108 44q42 44 42 106v184v138v80v60v114v128q0 64 -42 108q-44 44 -108 44h-130h-94h-56h-42h-82h-88q-60 0 -106 -44t-46 -108v-184v-136v-80v-60v-116v-128zM278 236q0 28 22 50q20 20 52 20t52 -20q22 -22 22 -50q0 -30 -22 -50t-52 -20t-52 20t-22 50zM278 446 q0 30 22 50q20 20 52 20t52 -20q22 -20 22 -50q0 -28 -22 -50q-10 -8 -20 -12q-14 -8 -32 -8q-30 0 -52 20q-22 22 -22 50zM278 658q0 28 22 50q20 20 52 20t52 -20q22 -22 22 -50q0 -30 -22 -50q-14 -12 -28 -16q-12 -4 -24 -4q-30 0 -52 20t-22 50zM278 868q0 30 22 50 q20 20 52 20t52 -20q22 -20 22 -50q0 -28 -22 -50q-16 -12 -34 -18q-8 -2 -18 -2q-30 0 -52 20q-22 22 -22 50zM314 236q0 -16 10 -26q12 -10 28 -10t28 10v2q10 10 10 24q0 16 -10 26q-12 8 -28 8t-28 -8q-10 -10 -10 -26zM314 446q0 -16 10 -24q12 -10 28 -10q10 0 18 4 q6 2 10 6q10 8 10 24t-10 26q-12 10 -28 10t-28 -10q-10 -10 -10 -26zM314 658q0 -16 10 -26q12 -10 28 -10q8 0 14 2q8 4 14 8q10 10 10 26t-10 26q-12 8 -28 8t-28 -8q-10 -10 -10 -26zM314 868q0 -16 10 -24q12 -10 28 -10h10q10 2 18 10q10 8 10 24t-10 26 q-12 10 -28 10t-28 -10q-10 -10 -10 -26zM326 1052q122 2 490 4q-122 0 -488 -4h-2zM500 236q0 28 20 50q22 20 54 20t52 -20q22 -22 22 -50q0 -30 -22 -50q-24 -20 -52 -20q-30 0 -52 20t-22 50zM500 446q0 30 20 50q22 20 54 20t52 -20q22 -20 22 -50q0 -28 -22 -50 q-24 -20 -52 -20q-30 0 -52 20q-22 22 -22 50zM500 658q0 28 20 50q22 20 54 20t52 -20q22 -22 22 -50q0 -30 -22 -50q-24 -20 -52 -20q-30 0 -52 20t-22 50zM500 868q0 30 20 50q22 20 54 20t52 -20q22 -20 22 -50q0 -28 -22 -50q-24 -20 -52 -20q-30 0 -52 20 q-22 22 -22 50zM534 236q0 -16 12 -26t28 -10t26 10q12 10 12 26t-12 26q-10 8 -26 8t-28 -8q-12 -10 -12 -26zM534 446q0 -16 12 -24q12 -10 28 -10t26 10q12 8 12 24t-12 26q-10 10 -26 10t-28 -10t-12 -26zM534 658q0 -16 12 -26t28 -10t26 10q12 10 12 26t-12 26 q-10 8 -26 8t-28 -8q-12 -10 -12 -26zM534 868q0 -16 12 -24q12 -10 28 -10t26 10q12 8 12 24t-12 26q-10 10 -26 10t-28 -10t-12 -26zM722 236q0 28 20 50q22 20 54 20q30 0 52 -20q20 -22 20 -50q0 -30 -20 -50q-22 -20 -52 -20t-52 20t-22 50zM722 446q0 30 20 50 q22 20 54 20q30 0 52 -20q20 -20 20 -50q0 -28 -20 -50q-22 -20 -52 -20t-52 20q-22 22 -22 50zM722 658q0 28 20 50q22 20 54 20q30 0 52 -20q20 -22 20 -50q0 -30 -20 -50q-22 -20 -52 -20t-52 20t-22 50zM722 868q0 30 20 50q22 20 54 20q30 0 52 -20q20 -20 20 -50 q0 -28 -20 -50q-22 -20 -52 -20t-52 20q-22 22 -22 50zM756 236q0 -16 12 -26t28 -10q14 0 26 10t12 26t-12 26q-12 8 -26 8q-16 0 -28 -8q-12 -10 -12 -26zM756 446q0 -16 12 -24q12 -10 28 -10q14 0 26 10q12 8 12 24t-12 26t-26 10q-16 0 -28 -10t-12 -26zM756 658 q0 -16 12 -26t28 -10q14 0 26 10t12 26t-12 26q-12 8 -26 8q-16 0 -28 -8q-12 -10 -12 -26zM756 868q0 -16 12 -24q12 -10 28 -10q14 0 26 10q12 8 12 24t-12 26t-26 10q-16 0 -28 -10t-12 -26z" />
<glyph unicode="f" d="M14 472q0 4 2 8q2 6 10 12l58 42l18 14v4v4v2v4l-58 42l-18 14q-8 6 -10 14q-4 6 0 14l38 120l14 38q2 8 10 14q6 4 14 4h74h24q4 4 4 6q2 2 4 6l-24 68l-8 22q-2 8 0 16t10 12l102 74l32 26q8 4 16 4t16 -4l58 -44l20 -14q2 0 4 2q4 2 6 2l24 68l8 24q2 8 10 12 q6 6 14 6h126h44q8 0 14 -6q8 -4 10 -12l24 -68l8 -24q2 0 4 -2q4 -2 6 -2l58 44l20 14q8 4 16 4t16 -4l100 -74l32 -26q8 -4 12 -12q2 -8 0 -16l-24 -68l-8 -22q2 -4 4 -6q0 -2 2 -6h74h26q6 0 14 -4q8 -6 10 -14l40 -118l12 -40q2 -4 2 -8t-2 -6q-2 -8 -10 -14l-58 -42 l-20 -14v-4v-2v-4v-4l58 -42l20 -14q8 -6 10 -12q4 -8 0 -16l-40 -118l-12 -40q-2 -8 -10 -14q-8 -4 -14 -4h-74h-26q-2 -2 -2 -6l-4 -4l24 -70l8 -22q2 -8 0 -16q-4 -6 -12 -12l-100 -74l-32 -24q-8 -6 -16 -6t-16 6l-58 42l-20 14q-2 0 -6 -2q-2 -2 -4 -2l-24 -68l-8 -24 q-2 -8 -10 -12q-6 -6 -14 -6h-128h-42q-8 0 -14 6q-8 4 -10 12l-24 70l-8 22q-2 0 -6 2q-2 2 -4 2l-58 -42l-20 -14q-8 -6 -16 -6t-16 6l-100 74l-34 24q-8 6 -10 12q-2 8 0 16l24 68l8 24l-4 4q0 4 -4 6h-72h-26q-8 0 -14 4q-8 6 -10 14l-40 118l-12 40q-2 4 -2 8zM74 468 q14 -42 40 -124h90q6 0 12 -2q8 -4 10 -8q6 -8 10 -14q6 -6 12 -14q4 -6 4 -12q2 -6 -2 -14l-20 -66l-8 -22q36 -24 106 -76q24 18 74 52l12 4q8 2 12 0q8 -2 16 -6l16 -4q6 -4 10 -6q6 -4 8 -12l24 -68l8 -24h130q8 30 28 88q2 6 8 10q4 6 10 8q8 2 16 6q8 2 14 4t14 2 q6 0 12 -6l54 -38l20 -14q34 26 104 78q-8 28 -28 84q-2 6 0 12q2 8 4 12q6 8 10 14q6 6 12 14q2 6 8 8q8 4 12 4h70h22q12 40 38 122q-24 18 -74 56q-4 4 -8 10q-2 6 -2 12v4v2v6v6v4v6v6t2 12q4 8 8 10l56 40l18 12q-12 42 -38 128h-92q-4 0 -12 2q-6 2 -8 8q-6 8 -12 14 q-4 6 -10 14q-4 6 -6 10q0 6 2 14l22 66l6 22q-34 26 -104 78q-26 -18 -74 -52q-6 -4 -12 -6q-8 -2 -14 2q-6 2 -14 4q-8 4 -16 6q-6 2 -10 6q-6 4 -8 12l-22 66l-6 22h-130q-10 -30 -28 -88q-4 -6 -8 -10q-6 -6 -10 -8q-8 -2 -16 -6l-16 -4q-6 -4 -12 -2q-8 2 -12 6l-56 38 l-18 14q-36 -26 -106 -78q10 -28 28 -88q2 -4 2 -12q-2 -6 -6 -12q-4 -8 -10 -14t-10 -14q-4 -6 -10 -8t-12 -2h-70h-24q-14 -42 -40 -124q26 -18 74 -52q6 -4 8 -10q4 -6 4 -12v-4v-2v-6v-6v-4v-6v-6t-4 -12q-2 -8 -8 -10l-54 -40zM290 556q0 116 82 198t198 82t200 -82 q82 -82 82 -198t-82 -200q-84 -82 -200 -82t-198 82q-82 84 -82 200zM342 556q0 -96 66 -162q68 -68 162 -68q96 0 162 68q68 66 68 162q0 94 -68 160q-66 68 -162 68q-94 0 -162 -68q-66 -66 -66 -160z" />
<glyph unicode="g" d="M110 24v56v40v68v44q0 116 82 198q84 84 200 84h86h64h110h70q116 0 198 -84q84 -82 84 -198v-54v-40v-70v-44q0 -10 -8 -16q-8 -8 -18 -8h-220h-164h-96h-72h-140h-152q-10 0 -18 8q-6 6 -6 16zM156 50h794v178q0 96 -68 162q-66 68 -164 68h-86h-64h-112h-68 q-96 0 -164 -68q-68 -66 -68 -162v-46v-36v-60v-36zM268 820q0 118 84 202q86 82 204 82q120 0 204 -82q84 -84 84 -202q0 -120 -84 -202q-84 -84 -204 -84q-118 0 -204 84q-84 82 -84 202zM320 820q0 -98 70 -168q68 -68 166 -68t166 68q70 70 70 168t-70 166 q-68 70 -166 70t-166 -70q-70 -68 -70 -166z" />
<glyph unicode="h" d="M20 722q0 76 28 146q28 68 84 124t124 84q70 28 146 28t146 -28q68 -28 124 -84t84 -124q28 -70 28 -146t-28 -146q-28 -68 -84 -124q-52 -54 -124 -84q-70 -28 -146 -28t-146 28q-68 30 -124 84q-56 56 -84 124q-28 70 -28 146zM72 722q0 -66 26 -126t72 -106 q48 -44 108 -70q58 -28 124 -28t126 26t106 72q44 48 70 108q28 58 28 124t-26 126t-72 106t-106 72t-126 26t-126 -26t-106 -72q-46 -48 -72 -106q-26 -60 -26 -126zM628 470q0 10 8 18t20 8q10 0 16 -8q66 -68 116 -118q50 -48 86 -86q30 -28 52 -50l38 -38q64 -64 72 -74 q10 -8 82 -80q8 -8 8 -18t-8 -16q-4 -6 -8 -8h-10q-6 0 -10 2q-6 2 -8 6l-116 116l-86 86q-30 30 -52 50l-38 38q-64 64 -72 74q-10 8 -82 80q-8 8 -8 18z" />
<glyph unicode="i" d="M160 1004q20 -134 34 -234q16 -102 26 -174q10 -60 16 -102q6 -44 10 -76q20 -130 22 -148q4 -20 24 -162q6 -56 94 -82q86 -28 184 -28t186 28q88 26 90 82q20 134 36 234q14 102 26 174q8 60 14 102q8 44 12 76q20 130 22 148q2 20 24 162v2v2v2v6q-4 12 -30 32 t-110 36q-46 8 -112 14q-66 4 -158 4t-158 -4q-66 -6 -112 -14q-84 -16 -110 -36t-30 -32v-4v-4v-2v-2zM216 1008q26 14 116 30q88 16 238 16t238 -16q90 -16 116 -30q-24 -12 -114 -30q-90 -16 -240 -16t-238 16q-90 18 -116 30zM220 956q38 -16 122 -30q84 -12 228 -12 t228 12q82 14 122 30q-16 -118 -30 -206q-12 -88 -22 -150q-8 -52 -14 -90t-10 -66q-16 -112 -18 -128q-2 -18 -22 -142q-52 20 -84 32q-34 14 -150 16q-66 0 -130 -10q-66 -12 -106 -38q-16 118 -30 206q-12 86 -22 150q-8 52 -14 90q-4 38 -8 66q-18 112 -20 128t-20 142z M342 110q0 14 58 38q56 22 170 22q112 0 170 -22q58 -24 58 -38q0 -12 -58 -36q-58 -22 -170 -22q-114 0 -170 22q-58 24 -58 36z" />
<glyph unicode="j" d="M46 310q2 -8 6 -14q40 -42 72 -76q30 -32 52 -56q90 -94 92 -96t56 -60q2 -4 8 -6q4 -2 10 -2h116h86h150h92q6 0 10 2q6 2 8 6q40 42 70 74q32 32 54 56q88 96 92 98q2 2 56 60q8 6 10 12q2 4 2 8q0 2 -2 6q-2 6 -10 12q-6 4 -14 4h-124h-90h-158h-98v304h412q12 0 18 8 q8 6 8 16q0 8 -4 14q-6 6 -10 8q-64 54 -112 94q-46 40 -82 70q-28 24 -48 42q-20 16 -36 30q-60 52 -70 58q-8 8 -76 66v32q0 10 -6 18q-8 6 -18 6q-12 0 -18 -6q-8 -8 -8 -18v-32v-10v-372v-328h-468q-8 0 -16 -4q-6 -4 -10 -10q-2 -4 -2 -12v-2zM134 286h868l-222 -240 h-424zM592 692v146v142l342 -288h-342z" />
<glyph unicode="k" d="M14 26q0 -10 8 -18q6 -6 18 -6h282h208h124h90h154h110h46h50h12q10 0 18 6q6 8 6 18v198v146v86v64v124v136q0 10 -6 18q-8 8 -18 8h-282h-210h-122h-92h-152h-112h-46h-60q-12 0 -18 -8q-8 -8 -8 -18v-198v-146v-86v-64v-36v-88v-136zM64 52v338v336q166 -116 500 -348 q2 -2 6 -2q4 -2 8 -2q2 0 6 2q6 0 8 2q74 52 130 92q56 38 98 68q32 22 56 38q24 18 42 30q72 50 82 58q10 6 90 62v-674h-1026zM118 756h918q-152 -108 -458 -324q-154 108 -460 324z" />
<glyph unicode="l" d="M216 28v276v204v120v88v100v50v110v44v60q0 10 8 18q6 6 16 6h184h136h80h60h116h126q10 0 18 -6q6 -8 6 -18v-276v-204v-120v-90v-150v-108v-44v-60q0 -8 -4 -14t-10 -10h-6h-4q-6 0 -10 2q-2 2 -8 4q-50 40 -86 70q-38 30 -66 52q-110 88 -112 90t-68 54 q-112 -90 -334 -268q-6 -6 -12 -6h-2q-8 0 -14 2q-8 2 -10 10q-4 6 -4 14zM266 84q102 84 308 250q4 2 8 2h10q4 0 8 -2l8 -4q46 -38 82 -66q34 -28 60 -48q100 -82 104 -84q2 -2 64 -52v976h-652v-244v-728z" />
<glyph unicode="m" d="M-6 542q0 74 88 152q86 78 210 128q66 26 138 42t142 16t142 -16t138 -42q124 -50 210 -128q88 -78 88 -152q0 -40 -28 -84q-26 -42 -72 -80q-86 -72 -218 -124q-130 -50 -260 -50t-262 50q-132 52 -216 124q-46 38 -72 80q-28 44 -28 84zM46 542q0 -28 22 -60 q24 -34 64 -66q74 -62 194 -112q118 -50 246 -50q68 0 136 16t128 40q112 48 188 114q74 68 74 118t-74 116q-76 68 -188 114q-60 26 -128 40q-68 16 -136 16t-136 -16q-68 -14 -128 -40q-112 -46 -188 -114q-74 -66 -74 -116zM344 542q0 96 66 164q68 68 162 68t160 -68 q68 -68 68 -164q0 -98 -68 -164q-66 -68 -160 -68t-162 68q-66 66 -66 164zM398 542q0 -72 52 -124q50 -54 122 -54t122 54q50 52 50 124t-50 124t-122 52t-122 -52q-52 -52 -52 -124zM542 608q0 36 24 62q26 26 62 26q34 0 60 -26q24 -26 24 -62t-24 -62q-26 -26 -60 -26 q-36 0 -62 26q-24 26 -24 62zM594 608q0 -14 10 -24t24 -10q12 0 22 10t10 24t-10 24q-10 8 -22 8q-14 0 -24 -8q-10 -10 -10 -24z" />
<glyph unicode="n" d="M14 552q0 80 22 152q22 74 62 138q72 118 196 190t272 72q82 0 154 -22q74 -20 138 -60q118 -72 190 -196t72 -274t-72 -274t-190 -196q-64 -38 -138 -60q-72 -22 -154 -22q-148 0 -272 72t-196 190q-40 64 -62 138q-22 72 -22 152zM70 552q0 -72 20 -140q20 -66 56 -124 q66 -108 178 -174q114 -64 248 -64q136 0 250 64q112 66 178 174q36 58 56 124q20 68 20 140t-20 140q-20 66 -56 126q-66 106 -178 172q-114 66 -250 66q-72 0 -138 -20q-68 -20 -126 -56q-106 -66 -172 -180q-66 -112 -66 -248zM274 552q0 24 18 42t42 18t42 -18t18 -42 t-18 -42q-10 -8 -20 -14q-10 -4 -22 -4q-24 0 -42 18t-18 42zM310 552q0 -10 6 -18q8 -6 18 -6q6 0 10 2l8 4q6 8 6 18t-6 18q-8 6 -18 6t-18 -6q-6 -8 -6 -18zM514 552q0 24 18 42t40 18q24 0 42 -18t18 -42t-18 -42t-42 -18q-22 0 -40 18t-18 42zM548 552q0 -10 8 -18 q6 -6 16 -6q12 0 18 6q8 8 8 18t-8 18q-6 6 -18 6q-10 0 -16 -6q-8 -8 -8 -18zM752 552q0 24 18 42t42 18t42 -18t18 -42t-16 -42q-18 -18 -44 -18q-24 0 -42 18t-18 42zM788 552q0 -10 6 -18q8 -6 18 -6t18 6q6 8 6 18t-6 18q-8 6 -18 6t-18 -6q-6 -8 -6 -18z" />
<glyph unicode="o" d="M22 552q0 80 22 152q20 74 60 138q72 118 196 190t274 72q80 0 154 -22q74 -20 136 -60q118 -72 190 -196t72 -274t-72 -274t-190 -196q-62 -38 -136 -60t-154 -22q-150 0 -274 72t-196 190q-40 64 -60 138q-22 72 -22 152zM70 552q0 -72 20 -140q20 -66 56 -124 q66 -108 180 -174q112 -64 248 -64t248 64q114 66 180 174q36 58 54 124q20 68 20 140q0 136 -64 248q-66 114 -174 180q-58 36 -124 56q-68 20 -140 20q-74 0 -140 -20q-68 -20 -126 -56q-106 -66 -172 -180q-66 -112 -66 -248zM476 444v56v40v74v44q0 10 6 18q8 6 18 6 t18 -6q6 -8 6 -18v-56v-40v-72v-44q0 -10 -6 -18t-14 -10h-4q-10 0 -18 8q-6 6 -6 18zM622 444v56v40v74v44q0 10 8 18q6 6 18 6q10 0 18 -6q6 -8 6 -18v-56v-40v-72v-44q0 -10 -6 -18q-8 -10 -18 -10q-12 0 -18 8q-8 6 -8 18z" />
<glyph unicode="p" d="M16 552q0 80 22 152q22 74 60 138q74 118 196 190q124 72 274 72q80 0 154 -22q74 -20 138 -60q116 -72 188 -196t72 -274t-72 -274t-188 -196q-64 -38 -138 -60t-154 -22q-150 0 -274 72q-122 72 -196 190q-38 64 -60 138q-22 72 -22 152zM66 552q0 -72 20 -140 q18 -66 54 -124q66 -108 180 -174q112 -64 248 -64q72 0 140 18q66 20 126 56q106 66 172 180q66 112 66 248q0 72 -20 140q-20 66 -56 126q-66 106 -180 172q-112 66 -248 66t-248 -66q-114 -66 -180 -172q-36 -60 -54 -126q-20 -68 -20 -140zM366 376q0 10 8 18 q54 52 94 92q38 40 68 68q22 24 40 40q16 18 30 30q50 50 56 58l64 64q8 8 20 8q10 0 16 -8q8 -8 8 -18t-8 -18q-54 -52 -92 -92l-68 -68q-24 -24 -42 -40q-16 -18 -28 -30q-52 -50 -58 -58l-64 -64q-2 -4 -8 -6h-10q-4 0 -10 2l-8 4q-8 8 -8 18zM366 728q0 10 8 18t20 8 q10 0 16 -8q52 -54 92 -92l68 -68q24 -24 40 -42q18 -16 30 -28q50 -52 58 -58l64 -64q8 -8 8 -18t-8 -18q-2 -4 -8 -6h-10t-10 2l-8 4q-52 54 -92 94q-40 38 -68 68q-24 22 -40 40q-18 16 -30 30q-50 50 -58 56l-64 64q-8 8 -8 18z" />
<glyph unicode="q" d="M20 552q0 80 22 152q22 74 62 138q72 118 196 190t272 72q82 0 154 -22q74 -20 138 -60q118 -72 190 -196t72 -274t-72 -274t-190 -196q-64 -38 -138 -60q-72 -22 -154 -22q-148 0 -272 72t-196 190q-40 64 -62 138q-22 72 -22 152zM70 552q0 -72 20 -140q20 -66 56 -124 q66 -108 178 -174q114 -64 248 -64q136 0 250 64q112 66 178 174q36 58 56 124q20 68 20 140t-20 140q-20 66 -56 126q-66 106 -178 172q-114 66 -250 66q-72 0 -138 -20q-68 -20 -126 -56q-106 -66 -172 -180q-66 -112 -66 -248zM426 394q14 20 44 60q6 -6 16 -14l26 -20 t68 -20q24 0 44 14t20 40q0 24 -24 40q-22 16 -62 34q-38 18 -80 44q-42 28 -42 86q0 44 30 78t76 44v40v14h66v-56q44 -6 68 -24l24 -18l8 -8l2 -4q-12 -20 -38 -62q-6 4 -18 14l-22 16q-22 14 -56 14q-32 0 -48 -16q-18 -18 -18 -36q0 -20 20 -36q20 -14 58 -30 q42 -20 84 -48q42 -30 42 -90q0 -48 -30 -82q-28 -34 -76 -40v-44v-14h-64v58q-52 6 -80 30q-28 22 -28 26l-8 8z" />
<glyph unicode="r" d="M-38 208q0 -6 4 -8q20 -30 36 -50q16 -22 28 -38q46 -64 46 -66q2 0 30 -40q2 -4 10 -8q6 -2 12 -2q4 0 12 2q6 4 8 8q22 30 38 52t26 36q46 64 48 66q0 2 30 40q2 6 4 8v4t-2 6q-12 94 -22 166q-10 70 -16 122q-6 42 -10 72q-4 32 -6 54q-12 90 -14 104t-16 114 q8 14 20 24t16 30l18 96l6 34v2q0 28 -18 46t-42 18h-124h-42q-26 0 -42 -18t-16 -46v-2l18 -98l6 -32q0 -20 10 -32q10 -14 24 -22q-12 -94 -20 -166q-10 -70 -16 -122q-6 -42 -10 -72q-4 -32 -6 -54q-12 -90 -14 -104t-14 -114v-10zM12 222q26 206 76 622h70 q28 -208 82 -622q-38 -54 -116 -160q-38 54 -112 160zM32 1040q0 4 2 8q4 4 8 4h124h42q2 0 6 -4q4 -2 4 -8l-18 -94l-6 -32v-2v-2q0 -4 -2 -8q-4 -2 -8 -2h-116q-6 0 -8 2q-4 4 -4 8v2v2l-18 94z" />
<glyph unicode="s" d="M-32 550q0 74 20 150q36 138 140 242q80 80 180 120q100 42 212 42q110 0 212 -42q102 -40 178 -120q78 -78 120 -178q42 -102 42 -212t-42 -212t-120 -178q-76 -80 -178 -120q-102 -42 -212 -42q-112 0 -212 42q-102 40 -180 120q-56 56 -92 124t-54 140q-14 62 -14 124 zM16 552q0 -66 18 -134q34 -126 130 -222q72 -70 164 -108t192 -38t192 38t162 108q72 72 110 164t38 192t-38 192t-110 164q-70 70 -162 108q-92 40 -192 40t-192 -40q-92 -38 -164 -108q-52 -52 -86 -114q-32 -62 -48 -128q-14 -56 -14 -114zM246 552q0 10 6 18q8 6 18 6 h130h96h56h42h82h90q10 0 18 -6q6 -8 6 -18t-6 -18q-4 -6 -14 -6h-132h-96h-58h-42h-82h-90q-10 0 -18 6q-6 8 -6 18zM494 302v132v96v58v42v82v10v80q0 10 8 18q6 6 18 6q10 0 16 -6q8 -8 8 -18v-130v-96v-58v-40v-82v-48v-42q0 -14 -8 -20q-6 -8 -16 -8q-12 0 -18 6 q-8 8 -8 18z" />
<glyph unicode="t" d="M184 200v184v138v80v60v114v128q0 14 2 26q2 14 4 26q18 66 72 106q54 42 122 42h102h74h130h82q84 0 142 -60q58 -58 58 -140v-184v-136v-80v-60v-116v-128q0 -84 -58 -142t-142 -58h-102h-76h-130h-80q-84 0 -142 60q-58 58 -58 140zM234 200q0 -62 44 -106t106 -44 h102h74h130h82q62 0 106 44t44 106v184v138v80v60v78v36v128q0 64 -44 108t-106 44h-102h-76q-126 0 -130 2h-4q-16 0 -76 -2q-66 -4 -108 -46t-42 -106v-184v-136v-80v-60v-116v-128zM300 190q0 10 8 18q6 6 16 6h132h100h58h42h84h92q10 0 16 -6q8 -8 8 -18t-8 -18 q-6 -6 -16 -6h-134h-98h-58h-42h-84h-92q-10 0 -16 6q-8 8 -8 18zM300 334q0 10 8 18q6 6 16 6h132h100h58h42h84h92q10 0 16 -6q8 -8 8 -18t-8 -18q-6 -6 -16 -6h-134h-98h-58h-42h-84h-92q-10 0 -16 6q-8 8 -8 18zM300 478q0 10 8 18q6 6 16 6h132h100h58h42h84h92 q10 0 16 -6q8 -8 8 -18t-8 -18q-6 -6 -16 -6h-134h-98h-58h-42h-84h-92q-10 0 -16 6q-8 8 -8 18zM300 622q0 12 8 18q6 8 16 8h132h100h58h42h84h92q10 0 16 -8q8 -6 8 -18q0 -10 -8 -18q-6 -6 -16 -6h-134h-98h-58h-42h-84h-92q-10 0 -16 6q-8 8 -8 18zM300 770q0 10 8 18 q6 6 16 6h132h100h58h42h84h92q10 0 16 -6q8 -8 8 -18t-8 -18q-6 -6 -16 -6h-134h-98h-58h-42h-84h-92q-10 0 -16 6q-8 8 -8 18zM300 914q0 10 8 18q6 6 16 6h132h100h58h42h84h92q10 0 16 -6q8 -8 8 -18t-8 -18q-6 -6 -16 -6h-134h-98h-58h-42h-84h-92q-10 0 -16 6 q-8 8 -8 18z" />
<glyph unicode="u" d="M164 114q2 -6 8 -12t12 -6q8 0 16 2l116 58l38 20l72 -162q2 -8 8 -10q8 -4 16 -4t14 4q8 6 10 14q16 42 26 72q12 32 20 54q32 92 32 94q2 2 20 58q34 -94 100 -278q2 -8 10 -14q6 -4 14 -4t16 4q6 4 8 10l54 122l18 40q50 -26 154 -78q8 -2 16 -2q6 0 12 6q10 6 14 12 q2 4 2 8t-2 8q-28 78 -48 136q-20 56 -36 98q-12 34 -20 60q-10 24 -16 42q-26 74 -30 84q-4 12 -32 94q26 36 40 80q16 44 16 92q0 118 -84 204q-82 84 -202 84q-118 0 -202 -84q-82 -86 -82 -204q0 -48 14 -92q16 -44 42 -80q-28 -78 -48 -136q-20 -56 -36 -98 q-12 -34 -20 -60q-10 -24 -16 -42q-26 -74 -30 -86q-4 -10 -32 -92q-2 -4 -2 -8v-8zM238 172q52 144 156 430l16 -12q8 -8 16 -14q2 -2 4 -2q2 -2 2 -4q8 -6 16 -10q8 -2 16 -8h4q8 -2 14 -6q6 -2 14 -4q8 -26 16 -46q6 -20 10 -32l20 -58q2 -2 14 -36q-36 -92 -106 -276 q-18 44 -56 128q-4 4 -6 8q-4 2 -8 6h-6h-2h-4q-4 -2 -6 -4l-92 -44zM348 820v6q0 90 66 158q68 72 162 72q96 0 164 -70q68 -68 68 -166q0 -42 -12 -82q-14 -38 -40 -70q-24 -28 -52 -48q-30 -18 -64 -30q-32 -8 -62 -8t-62 8q-34 12 -62 30q-30 20 -54 48q-26 32 -38 70 q-14 40 -14 82zM548 534h14h14h2h2h16l12 4h4h4l16 4q8 0 18 4l20 4q8 4 16 10h4q4 2 6 2q6 4 12 6q8 4 12 8t6 4q2 2 6 4q8 6 16 10l14 14l42 -112q16 -48 30 -84q50 -140 52 -144q0 -2 32 -88q-42 16 -124 52q-4 0 -10 2q-6 0 -10 -2q-6 -2 -8 -6q-4 -2 -6 -8l-42 -92 l-14 -32q-34 98 -102 290z" />
<glyph unicode="v" d="M22 578v70v50v88v4v52q0 108 78 184q76 78 184 78h152h112h66h50h94h104q108 0 186 -78q78 -76 78 -184v-70v-50v-88v-56q0 -66 -32 -124q-34 -60 -90 -96l-2 -2l-2 -2q-78 -52 -136 -92t-102 -68q-34 -22 -58 -40q-26 -18 -44 -30q-74 -50 -86 -58q-10 -6 -94 -62 q-2 -4 -6 -4h-8h-4q-4 0 -6 4q-6 2 -10 8q-4 8 -4 12v76v58v96v62h-158q-108 0 -184 78q-78 76 -78 184zM70 578q0 -86 62 -148t148 -62h50h36h62h38q12 0 18 -6q8 -8 8 -18v-70v-52v-90v-54q158 106 472 322l2 2l2 2q48 28 74 76q28 46 28 102v70v50v88v54q0 88 -62 150 t-148 62h-152h-112h-66t-50 2h-94h-4q-16 0 -102 -2q-96 -4 -154 -66q-56 -62 -56 -148v-38v-32v-50v-88v-56z" />
<glyph unicode="w" d="M106 636q2 -22 20 -42q16 -22 44 -52q34 -34 78 -84q42 -50 82 -128q26 -52 40 -100q14 -46 14 -126q0 -54 78 -80q78 -24 172 -24q44 0 84 6t70 16q50 18 64 40q16 24 16 42q0 94 10 134t26 74l4 10l2 2q18 42 24 118t6 80q0 100 -2 100t2 32v12q0 36 -24 54 q-26 22 -62 22q-14 0 -26 -4q-14 -4 -24 -12q-4 34 -30 58q-24 22 -58 22q-14 0 -28 -4q-12 -4 -22 -12q-2 36 -28 60q-24 26 -60 26q-14 0 -26 -4q-14 -4 -24 -12v118v38q0 36 -26 62t-62 26t-62 -26t-26 -62v-102v-78v-134v-82q-30 26 -66 46q-34 20 -54 26q-24 10 -54 10 t-50 -16q-8 -6 -16 -18q-6 -10 -6 -24v-8zM152 642q0 8 2 12t4 4q8 6 26 6q20 0 40 -6q40 -14 84 -50t44 -58q0 -8 4 -12q6 -6 14 -6t14 6q4 4 4 12v124v90v156v96q0 20 14 36q16 16 38 16q20 0 34 -16q16 -14 16 -36v-60v-44v-76v-48v-6v-226q0 -36 26 -62t62 -26 q18 0 34 8q14 6 26 16q12 -22 34 -34q20 -14 44 -14q20 0 38 8q16 8 28 22q12 -18 32 -28t42 -10q12 0 24 4t22 10l-8 -60q-6 -28 -14 -44l-8 -12l-2 -4q-20 -32 -30 -78t-10 -146q0 -18 -20 -28q-18 -10 -32 -16q-28 -10 -66 -16q-36 -4 -76 -4q-94 0 -152 22 q-58 20 -58 42q0 86 -14 138q-14 54 -42 108q-42 80 -86 132q-46 52 -78 88q-20 22 -38 40q-16 18 -16 30zM524 554v58v44v76v48v4q0 22 14 38q14 14 36 14q20 0 36 -14q16 -16 16 -38v-60v-44v-78v-48q0 -20 -14 -36q-16 -16 -38 -16q-20 0 -34 16q-16 14 -16 36zM662 532 v16v6v2v122v40q0 20 16 34t36 14t34 -14q16 -14 16 -36v-48v-16v-120q0 -20 -14 -36q-14 -14 -36 -14q-20 0 -36 14t-16 36zM802 522v98v32q2 22 16 36t34 14t34 -14q16 -14 16 -36v-98v-32q0 -20 -14 -36t-36 -16q-20 0 -36 16q-14 14 -14 36z" />
<glyph unicode="x" d="M-34 434q0 8 6 16q8 6 18 6q8 0 16 -6l76 -76q34 -34 58 -56q98 -96 100 -98t62 -60q216 212 646 634q8 8 20 8q10 0 12 -8q10 -6 10 -18q0 -10 -10 -14q-98 -98 -172 -170l-128 -128q-46 -42 -76 -74q-34 -30 -58 -54q-76 -74 -94 -94q-20 -16 -68 -66q-14 -12 -28 -28 q-16 -16 -38 -36q-2 -6 -8 -8h-8q-6 0 -10 2t-8 6q-46 44 -80 78q-36 36 -60 62q-22 18 -38 34q-14 16 -26 26q-44 42 -50 50q-8 6 -58 54q-6 8 -6 18z" />
<glyph unicode="y" d="M82 22v222v88v76v96v72v140v154q0 8 8 14q6 8 14 8q10 0 16 -8q6 -6 6 -14v-216v-162v-94v-70v-134v-150h920q10 0 16 -6t6 -16t-6 -16t-16 -6h-246h-184h-106h-80h-134h-98h-40h-54q-8 0 -14 6q-8 6 -8 16zM290 22v122v90v156v96q0 10 6 16t16 6t16 -6t6 -16v-120v-92 v-156v-96v-6q0 -6 -6 -10q-6 -6 -16 -6t-16 6t-6 16zM482 22v204v150v90v66v128v140q0 10 6 16t16 6q8 0 16 -6q6 -6 6 -16v-204v-150v-90v-66v-128v-140q0 -4 -2 -6q0 -6 -4 -10q-8 -6 -16 -6q-10 0 -16 6t-6 16zM670 22v46v116v122v70v52v102v114q0 8 6 14q6 8 16 8t16 -8 q6 -6 6 -14v-164v-120v-70v-54v-102v-112q0 -10 -6 -16t-16 -6t-16 6t-6 16zM858 22v80v60v104v64q0 8 6 16q6 6 16 6t16 -6q6 -8 6 -16v-82v-58v-104v-64v-4q0 -6 -6 -12t-16 -6t-16 6t-6 16z" />
<glyph unicode="z" d="M-10 560q0 -10 4 -16q6 -8 14 -10q34 -14 58 -24q26 -10 44 -16l74 -28q2 -2 48 -18q-26 -78 -76 -232q-2 -10 2 -20q6 -8 14 -14q58 -26 102 -46t76 -34q128 -60 132 -62q2 0 82 -36q2 0 4 -2q4 -2 6 -2h6t6 4q58 26 102 46t76 36q128 58 132 60q2 0 82 36q8 6 12 14 q4 10 2 20q-12 34 -20 60t-14 46q-24 76 -26 78q0 2 -14 48q74 28 224 86q8 2 12 10q6 6 6 16q0 8 -4 16q-6 6 -12 10q-82 32 -146 56q-62 24 -108 42q-38 14 -64 24q-28 12 -48 18q-80 32 -92 36t-100 40q-6 2 -12 2q-4 0 -8 -2q-82 -32 -146 -56q-62 -26 -108 -44 q-38 -14 -64 -24q-28 -10 -48 -18q-80 -32 -92 -36q-10 -4 -100 -38q-8 -4 -14 -10q-4 -8 -4 -16zM90 560q162 62 484 186l486 -186q-60 -24 -176 -68h-4h-4l-24 -12l-10 -2q-2 4 -6 8q-2 4 -8 6q-36 14 -64 24q-26 10 -46 16q-80 30 -82 30q-2 2 -50 20q-12 2 -22 -2 t-12 -14t2 -20t12 -12q34 -14 58 -22q24 -10 42 -16q70 -28 72 -28t46 -16q-70 -26 -210 -80q-100 40 -302 116h-4h-4q-26 12 -46 20t-32 12q-58 24 -60 24q-2 2 -36 16zM216 220q22 68 64 206q94 -38 284 -110h2h4h2h2h4h4q30 12 54 22q24 8 40 14q66 26 68 26q2 2 42 18 v-112q0 -12 8 -20q8 -6 18 -6q12 0 20 6q8 8 8 20v100v34q6 2 22 8q24 -68 70 -202q-120 -54 -358 -164q-118 54 -358 160z" />
<glyph unicode="&#x2000;" horiz-adv-x="682" />
<glyph unicode="&#x2001;" horiz-adv-x="1365" />
<glyph unicode="&#x2002;" horiz-adv-x="682" />
<glyph unicode="&#x2003;" horiz-adv-x="1365" />
<glyph unicode="&#x2004;" horiz-adv-x="455" />
<glyph unicode="&#x2005;" horiz-adv-x="341" />
<glyph unicode="&#x2006;" horiz-adv-x="227" />
<glyph unicode="&#x2007;" horiz-adv-x="227" />
<glyph unicode="&#x2008;" horiz-adv-x="170" />
<glyph unicode="&#x2009;" horiz-adv-x="273" />
<glyph unicode="&#x200a;" horiz-adv-x="75" />
<glyph unicode="&#x202f;" horiz-adv-x="273" />
<glyph unicode="&#x205f;" horiz-adv-x="341" />
<glyph unicode="&#x25fc;" horiz-adv-x="800" d="M0 0v800h800v-800h-800z" />
</font>
</defs>
</svg>
